<?xml version="1.0" encoding="utf-8"?>
<!-- Generator: Adobe Illustrator 17.0.0, SVG Export Plug-In . SVG Version: 6.00 Build 0)  -->
<!DOCTYPE svg PUBLIC "-//W3C//DTD SVG 1.1//EN" "http://www.w3.org/Graphics/SVG/1.1/DTD/svg11.dtd">
<svg version="1.1" id="图层_1" xmlns="http://www.w3.org/2000/svg" xmlns:xlink="http://www.w3.org/1999/xlink" x="0px" y="0px"
	 width="16px" height="16px" viewBox="0 0 16 16" enable-background="new 0 0 16 16" xml:space="preserve">
<g>
	<defs>
		<path id="SVGID_1_" d="M234.019-77.255c0-0.219,0.185-0.396,0.403-0.396h6.694c0.223,0,0.403,0.176,0.403,0.396
			c0,0.219-0.185,0.396-0.403,0.396h-6.694C234.199-76.858,234.019-77.034,234.019-77.255z"/>
	</defs>
	<clipPath id="SVGID_2_">
		<use xlink:href="#SVGID_1_"  overflow="visible"/>
	</clipPath>
	<g clip-path="url(#SVGID_2_)">
		<defs>
			<rect id="SVGID_3_" x="-473.481" y="-434.744" width="1200" height="658.125"/>
		</defs>
		<clipPath id="SVGID_4_">
			<use xlink:href="#SVGID_3_"  overflow="visible"/>
		</clipPath>
	</g>
</g>
<g>
	<defs>
		<rect id="SVGID_5_" x="687.231" y="-505.706" width="17.377" height="19.956"/>
	</defs>
	<clipPath id="SVGID_6_">
		<use xlink:href="#SVGID_5_"  overflow="visible"/>
	</clipPath>
	<g clip-path="url(#SVGID_6_)">
		<defs>
			<rect id="SVGID_7_" x="-1031.771" y="-524.75" width="1920" height="1080"/>
		</defs>
		<clipPath id="SVGID_8_">
			<use xlink:href="#SVGID_7_"  overflow="visible"/>
		</clipPath>
	</g>
</g>
<g>
	<path fill="#C8C9CC" d="M16,8c0-4.418-3.582-8-8-8C3.582,0,0,3.582,0,8c0,2.97,1.622,5.556,4.025,6.936
		c0.097-1.718,1.689-2.169,2.067-2.246c0.287-0.058,0.666-0.119,0.977-0.24v-0.495c-0.878-0.312-1.567-1.069-1.834-2.023
		c-0.466-0.1-0.813-0.475-0.813-0.925c0-0.292,0.147-0.553,0.377-0.728c0.381-1.265-0.565-1.79-0.227-3.368
		C4.851,3.608,6.69,3.174,8.075,3.919c1.222-0.745,2.036,0.083,2.362,0.579c0.326,0.497,0.815,0.579,0.978,1.572
		c0.134,0.82-0.23,1.414-0.361,2.156c0.275,0.172,0.456,0.458,0.456,0.782c0,0.449-0.347,0.825-0.813,0.925
		c-0.267,0.954-0.956,1.711-1.834,2.023v0.495c0.312,0.121,0.691,0.182,0.978,0.24c0.381,0.077,1.994,0.535,2.069,2.287
		C14.348,13.607,16,10.998,16,8z"/>
	<path fill="#FFFFFF" d="M9.839,12.69c-0.287-0.058-0.666-0.119-0.978-0.24v-0.495c0.878-0.312,1.567-1.069,1.834-2.023
		c0.466-0.1,0.813-0.475,0.813-0.925c0-0.324-0.181-0.61-0.456-0.782c0.131-0.741,0.496-1.336,0.361-2.156
		c-0.163-0.993-0.652-1.076-0.978-1.572c-0.326-0.497-1.14-1.324-2.362-0.579C6.69,3.174,4.851,3.608,4.572,4.912
		C4.235,6.49,5.181,7.015,4.8,8.28C4.569,8.455,4.422,8.716,4.422,9.008c0,0.449,0.347,0.825,0.813,0.925
		c0.267,0.954,0.956,1.711,1.834,2.023v0.495c-0.312,0.121-0.69,0.182-0.977,0.24c-0.378,0.077-1.97,0.528-2.067,2.246
		C5.197,15.609,6.552,16,8,16c1.42,0,2.752-0.374,3.908-1.023C11.834,13.225,10.22,12.768,9.839,12.69z"/>
</g>
</svg>
