<?xml version="1.0" encoding="UTF-8"?>
<svg width="181px" height="112px" viewBox="0 0 181 112" version="1.1" xmlns="http://www.w3.org/2000/svg" xmlns:xlink="http://www.w3.org/1999/xlink">
    <!-- Generator: Sketch 41 (35326) - http://www.bohemiancoding.com/sketch -->
    <title>Group</title>
    <desc>Created with Sketch.</desc>
    <defs>
        <ellipse id="path-1" cx="177" cy="92" rx="4" ry="4"></ellipse>
        <mask id="mask-2" maskContentUnits="userSpaceOnUse" maskUnits="objectBoundingBox" x="0" y="0" width="8" height="8" fill="white">
            <use xlink:href="#path-1"></use>
        </mask>
        <ellipse id="path-3" cx="3" cy="85" rx="3" ry="3"></ellipse>
        <mask id="mask-4" maskContentUnits="userSpaceOnUse" maskUnits="objectBoundingBox" x="0" y="0" width="6" height="6" fill="white">
            <use xlink:href="#path-3"></use>
        </mask>
        <ellipse id="path-5" cx="27.781457" cy="35.781457" rx="2.78145695" ry="2.78145695"></ellipse>
        <mask id="mask-6" maskContentUnits="userSpaceOnUse" maskUnits="objectBoundingBox" x="0" y="0" width="5.56291391" height="5.56291391" fill="white">
            <use xlink:href="#path-5"></use>
        </mask>
    </defs>
    <g id="Page-1" stroke="none" stroke-width="1" fill="none" fill-rule="evenodd">
        <g id="邮件激活-copy-2" transform="translate(-875.000000, -311.000000)">
            <g id="Group" transform="translate(875.000000, 312.000000)">
                <ellipse id="Oval-5" fill="#E0F4FF" cx="86" cy="108.969796" rx="30" ry="1.96979625"></ellipse>
                <use id="Oval-7" stroke="#1DACFD" mask="url(#mask-2)" stroke-width="4" opacity="0.4" xlink:href="#path-1"></use>
                <use id="Oval-7-Copy" stroke="#1DACFD" mask="url(#mask-4)" stroke-width="4" fill="#FFFFFF" xlink:href="#path-3"></use>
                <use id="Oval-7-Copy-2" stroke="#1DACFD" mask="url(#mask-6)" stroke-width="4" opacity="0.4" xlink:href="#path-5"></use>
                <g id="Group-7" opacity="0.6" transform="translate(71.000000, 0.000000)" stroke="#1DACFD" stroke-width="2" stroke-linecap="round">
                    <path d="M0,0 L5.61939164,5.61939164" id="Path-5"></path>
                    <path d="M0,5.25792029 L5.95897633,0" id="Path-5-Copy-2"></path>
                </g>
                <g id="Group-7-Copy" transform="translate(159.965148, 38.965148) rotate(12.000000) translate(-159.965148, -38.965148) translate(157.465148, 36.465148)" stroke="#1DACFD" stroke-width="2" stroke-linecap="round">
                    <path d="M3.93018951e-13,-3.37951889e-13 L4.68282637,4.68282637" id="Path-5"></path>
                    <path d="M3.93018951e-13,4.38160025 L4.96581361,-3.37951889e-13" id="Path-5-Copy-2"></path>
                </g>
                <g id="Group-6" transform="translate(61.000000, 42.000000)">
                    <ellipse id="Oval-14-Copy-2" fill="#FF5350" cx="25.000193" cy="25" rx="25.000193" ry="25"></ellipse>
                    <path d="M35,33.3216512 C35,32.8466512 34.8100077,32.4350077 34.4933411,32.15 L27.8433411,25.5 L34.4616821,18.8816589 C34.7783488,18.5649923 34.9683411,18.1533488 34.9683411,17.7100077 C34.9683411,16.7916667 34.2083333,16.0316589 33.2899923,16.0316589 C32.8149923,16.0316589 32.4033488,16.2216512 32.1183411,16.5383179 L25.5,23.1566589 L18.85,16.5066589 C18.5333333,16.1899923 18.1216512,16 17.6783488,16 C16.7600077,16 16,16.7600077 16,17.6783488 C16,18.1533488 16.1899923,18.5649923 16.5066589,18.85 L23.1566589,25.5 L16.5383179,32.0866821 C16.2216512,32.4033488 16.0316589,32.8149923 16.0316589,33.2583333 C16.0316589,34.1766744 16.7916667,34.9366821 17.7100077,34.9366821 C18.1850077,34.9366821 18.5966512,34.7466512 18.8816589,34.4299845 L25.5,27.8433411 L32.15,34.4933411 C32.4350077,34.8100077 32.8466512,35 33.3216512,35 C34.2399923,35 35,34.2399923 35,33.3216512 Z" id="关闭-copy-36" fill="#FFFFFF"></path>
                </g>
            </g>
        </g>
    </g>
</svg>