<?xml version="1.0" encoding="UTF-8"?>
<svg width="273px" height="177px" viewBox="0 0 273 177" version="1.1" xmlns="http://www.w3.org/2000/svg" xmlns:xlink="http://www.w3.org/1999/xlink">
    <!-- Generator: Sketch 41 (35326) - http://www.bohemiancoding.com/sketch -->
    <title>Group 7</title>
    <desc>Created with Sketch.</desc>
    <defs>
        <polygon id="path-1" points="0 144.859 229.25 144.859 229.25 0 0 0"></polygon>
        <ellipse id="path-3" cx="267.768212" cy="107.736634" rx="4.76821192" ry="4.73663436"></ellipse>
        <mask id="mask-4" maskContentUnits="userSpaceOnUse" maskUnits="objectBoundingBox" x="0" y="0" width="9.53642384" height="9.47326872" fill="white">
            <use xlink:href="#path-3"></use>
        </mask>
        <ellipse id="path-5" cx="3.97350993" cy="140.947195" rx="3.97350993" ry="3.9471953"></ellipse>
        <mask id="mask-6" maskContentUnits="userSpaceOnUse" maskUnits="objectBoundingBox" x="0" y="0" width="7.94701987" height="7.8943906" fill="white">
            <use xlink:href="#path-5"></use>
        </mask>
        <ellipse id="path-7" cx="45.781457" cy="58.7630367" rx="2.78145695" ry="2.76303671"></ellipse>
        <mask id="mask-8" maskContentUnits="userSpaceOnUse" maskUnits="objectBoundingBox" x="0" y="0" width="5.56291391" height="5.52607342" fill="white">
            <use xlink:href="#path-7"></use>
        </mask>
    </defs>
    <g id="Page-1" stroke="none" stroke-width="1" fill="none" fill-rule="evenodd">
        <g id="1928x1080-copy-2" transform="translate(-995.000000, -452.000000)">
            <g id="Group-7" transform="translate(995.000000, 453.000000)">
                <g id="Group-5">
                    <g id="Group-4" transform="translate(25.000000, 30.000000)">
                        <g id="Group-2">
                            <path d="M131.5594,80.5354 L109.1844,80.5354 L80.1284,80.5354 L56.9814,80.5354 C54.1094,80.5354 51.7814,82.8634 51.7814,85.7344 L51.7814,128.3024 L51.7814,129.6464 C51.7814,132.5184 54.1094,134.8464 56.9814,134.8464 L131.5594,134.8464 C134.4314,134.8464 136.7584,132.5184 136.7584,129.6464 L136.7584,128.3024 L136.7584,85.7344 C136.7584,82.8634 134.4314,80.5354 131.5594,80.5354 Z" id="Fill-1" fill="#FFFFFF"></path>
                            <path d="M131.5594,80.5354 L109.1844,80.5354 L80.1284,80.5354 L56.9814,80.5354 C54.1094,80.5354 51.7814,82.8634 51.7814,85.7344 L51.7814,128.3024 L51.7814,129.6464 C51.7814,132.5184 54.1094,134.8464 56.9814,134.8464 L131.5594,134.8464 C134.4314,134.8464 136.7584,132.5184 136.7584,129.6464 L136.7584,128.3024 L136.7584,85.7344 C136.7584,82.8634 134.4314,80.5354 131.5594,80.5354 Z" id="Stroke-3" stroke="#1DACFD" stroke-width="2"></path>
                            <path d="M94.3777,0.000400000001 C88.9167,0.000400000001 84.4897,4.4274 84.4897,9.8884 C84.4897,13.5764 86.5127,16.7864 89.5057,18.4864 L99.2497,18.4864 C102.2427,16.7864 104.2657,13.5764 104.2657,9.8884 C104.2657,4.4274 99.8387,0.000400000001 94.3777,0.000400000001 M94.3777,2.0004 C98.7267,2.0004 102.2657,5.5384 102.2657,9.8884 C102.2657,12.5494 100.9067,15.0334 98.6887,16.4864 L90.0667,16.4864 C87.8487,15.0334 86.4897,12.5494 86.4897,9.8884 C86.4897,5.5384 90.0287,2.0004 94.3777,2.0004" id="Fill-5" fill="#1DACFD"></path>
                            <mask id="mask-2" fill="white">
                                <use xlink:href="#path-1"></use>
                            </mask>
                            <g id="Clip-8"></g>
                            <path d="M88.502,22.26 L100.253,22.26 L100.253,16.122 L88.502,16.122 L88.502,22.26 Z M90.502,20.26 L98.253,20.26 L98.253,18.122 L90.502,18.122 L90.502,20.26 Z" id="Fill-7" fill="#1DACFD" mask="url(#mask-2)"></path>
                            <path d="M118.1112,55.5284 C118.1112,55.5284 123.6942,55.7444 123.3362,60.7954 C123.0502,63.0884 121.9992,64.5794 117.6282,65.0164" id="Stroke-9" stroke="#1DACFD" stroke-width="2" stroke-linecap="round"></path>
                            <path d="M120.5659,67.9592 L120.5659,64.5482" id="Stroke-10" stroke="#1DACFD" stroke-width="2" stroke-linecap="round"></path>
                            <path d="M68.9776,55.7444 C68.9776,55.7444 65.5026,57.9114 65.8016,60.6414 C65.9336,61.8414 66.4166,63.4114 68.9776,64.7724" id="Stroke-11" stroke="#1DACFD" stroke-width="2" stroke-linecap="round"></path>
                            <path d="M72.0586,68.928 C72.0586,68.928 75.1516,76.418 80.1286,80.535 L108.7436,80.535 C110.5146,78.523 115.3356,75.555 117.1506,66.349 C118.1296,59.434 118.4876,52.52 118.4876,52.52" id="Fill-12" fill="#FFFFFF"></path>
                            <path d="M71.3957949,65.7355205 C71.3957949,65.7355205 73.4204349,74.2962219 80.5677576,80.535 L108.7436,80.535 C110.5146,78.523 115.3356,75.555 117.1506,66.349 C118.1296,59.434 118.4876,52.52 118.4876,52.52" id="Stroke-13" stroke="#1DACFD" stroke-width="2"></path>
                            <path d="M100.0261,107.2849 C100.0261,110.4639 97.4491,113.0409 94.2701,113.0409 C91.0911,113.0409 88.5141,110.4639 88.5141,107.2849 C88.5141,104.1059 91.0911,101.5289 94.2701,101.5289 C97.4491,101.5289 100.0261,104.1059 100.0261,107.2849" id="Fill-15" fill="#BFE7FD"></path>
                            <path d="M100.0261,107.2849 C100.0261,110.4639 97.4491,113.0409 94.2701,113.0409 C91.0911,113.0409 88.5141,110.4639 88.5141,107.2849 C88.5141,104.1059 91.0911,101.5289 94.2701,101.5289 C97.4491,101.5289 100.0261,104.1059 100.0261,107.2849 Z" id="Stroke-16" stroke="#1DACFD" stroke-width="2" stroke-linecap="round"></path>
                            <path d="M56.981,134.8464 L131.559,134.8464 C134.431,134.8464 136.759,132.5184 136.759,129.6474 L136.759,127.1564 L51.782,127.1564 L51.782,129.6474 C51.782,132.5184 54.109,134.8464 56.981,134.8464" id="Fill-17" fill="#DFF4FF"></path>
                            <path d="M51.7816,127.1559 L51.7816,129.6469 C51.7816,132.5189 54.1096,134.8459 56.9806,134.8459 L131.5596,134.8459 C134.4306,134.8459 136.7586,132.5189 136.7586,129.6469 L136.7586,127.1559" id="Stroke-18" stroke="#1DACFD" stroke-width="2"></path>
                            <path d="M181.8305,94.1635 C181.8305,94.1635 180.5255,93.9575 178.7845,94.0945 C178.7885,94.2075 178.8015,94.3185 178.8015,94.4325 C178.8015,99.2475 174.9165,103.1535 170.1105,103.1935 L170.1105,107.2065 L174.0835,107.2065 C174.0835,107.2065 181.1045,107.5165 181.9535,97.9095 C181.9535,93.3535 181.8305,94.1635 181.8305,94.1635" id="Fill-21" fill="#BFE7FD"></path>
                            <path d="M181.8305,94.1635 C181.8305,94.1635 180.5255,93.9575 178.7845,94.0945 C178.7885,94.2075 178.8015,94.3185 178.8015,94.4325 C178.8015,99.2475 174.9165,103.1535 170.1105,103.1935 L170.1105,107.2065 L174.0835,107.2065 C174.0835,107.2065 181.1045,107.5165 181.9535,97.9095 C181.9535,93.3535 181.8305,94.1635 181.8305,94.1635 Z" id="Stroke-22" stroke="#1DACFD" stroke-width="2" stroke-linecap="round" fill="#BFE7FD"></path>
                            <path d="M178.7841,94.0949 C178.6051,89.4119 174.7631,85.6679 170.0361,85.6679 C165.1961,85.6679 161.2721,89.5919 161.2721,94.4329 C161.2721,99.2729 165.1961,103.1969 170.0361,103.1969 C170.0611,103.1969 170.0861,103.1939 170.1111,103.1929" id="Stroke-23" stroke="#1DACFD" stroke-width="2" stroke-linecap="round"></path>
                            <path d="M158.6278,94.4324 C158.6278,94.4324 168.8098,92.8074 170.1078,101.7724 L170.1078,107.2084 L166.7208,107.2084 C166.7208,107.2084 159.4598,107.5134 158.6278,98.1014 L158.6278,94.4324 Z" id="Fill-24" fill="#BFE7FD"></path>
                            <polygon id="Stroke-26" stroke="#1DACFD" stroke-width="2" stroke-linecap="round" points="168.283 113.091 172.015 113.091 172.015 107.21 168.283 107.21"></polygon>
                            <path d="M180.9396,120.2062 C180.9396,120.5112 180.6926,120.7582 180.3876,120.7582 L159.4026,120.7582 C159.0976,120.7582 158.8506,120.5112 158.8506,120.2062 L158.8506,113.6432 C158.8506,113.3382 159.0976,113.0912 159.4026,113.0912 L180.3876,113.0912 C180.6926,113.0912 180.9396,113.3382 180.9396,113.6432 L180.9396,120.2062 Z" id="Stroke-27" stroke="#1DACFD" stroke-width="2" stroke-linecap="round"></path>
                            <polygon id="Stroke-28" stroke="#1DACFD" stroke-width="2" stroke-linecap="round" points="178.0187 134.9971 162.1977 134.9971 160.7377 120.2711 179.1747 120.2711"></polygon>
                            <path d="M110.8383,71.3568 C110.8383,72.8848 109.5993,74.1228 108.0723,74.1228 C106.5443,74.1228 105.3053,72.8848 105.3053,71.3568 C105.3053,69.8288 106.5443,68.5908 108.0723,68.5908 C109.5993,68.5908 110.8383,69.8288 110.8383,71.3568 Z" id="Stroke-30" fill="#1DACFD" opacity="0.15"></path>
                            <path d="M84.1552,71.3568 C84.1552,72.8848 82.9172,74.1228 81.3892,74.1228 C79.8612,74.1228 78.6222,72.8848 78.6222,71.3568 C78.6222,69.8288 79.8612,68.5908 81.3892,68.5908 C82.9172,68.5908 84.1552,69.8288 84.1552,71.3568 Z" id="Stroke-31" fill="#1DACFD" opacity="0.15"></path>
                            <path d="M98.6923853,72.6090112 C98.1074781,74.4445882 96.7854978,75.448681 94.6876261,75.448681 C92.588781,75.448681 91.3545019,74.3519095 90.6923853,72.448681" id="Stroke-32" stroke="#1DACFD" stroke-width="2" stroke-linecap="round"></path>
                            <path d="M94.6826,21.1635 C80.5756,21.1635 68.9776,31.0485 69.1386,46.7075 L69.6880891,65.8563815 C69.6880891,65.8563815 102.8986,71.2645 106.9436,42.7525 C106.8136,43.5025 105.3566,53.5065 120.1616,53.6905 L120.2266,46.7075 C119.8856,30.6665 108.7896,21.1635 94.6826,21.1635 Z" id="Stroke-33" stroke="#1DACFD" stroke-width="2" stroke-linecap="round"></path>
                            <path d="M106.6299,37.2228 L106.6299,38.9428" id="Stroke-34" stroke="#1DACFD" stroke-width="2" stroke-linecap="round"></path>
                            <path d="M229.25,140.006 C229.25,142.771 227.009,145.012 224.244,145.012 L5.006,145.012 C2.241,145.012 0,142.771 0,140.006 C0,137.241 2.241,135 5.006,135 L224.244,135 C227.009,135 229.25,137.241 229.25,140.006" id="Fill-36" fill="#DFF4FF"></path>
                            <rect id="Rectangle-72" fill="#1DACFD" x="2" y="134" width="225" height="2" rx="1"></rect>
                            <circle id="Oval-15" fill="#1DACFD" cx="106" cy="63" r="2"></circle>
                            <path d="M174.028527,94.4324 C174.028527,96.6420051 172.237278,98.4324 170.028527,98.4324 C167.818922,98.4324 166.027673,96.6420051 166.027673,94.4324 C166.027673,92.2227949 167.818922,90.4324 170.028527,90.4324 C172.237278,90.4324 174.028527,92.2227949 174.028527,94.4324 Z" id="Stroke-20" stroke="#1DACFD" stroke-width="2" stroke-linecap="round" fill="#BFE7FD"></path>
                            <path d="M158.6278,94.4324 C158.6278,94.4324 168.8098,92.8074 170.1078,101.7724 L170.1078,107.2084 L166.7208,107.2084 C166.7208,107.2084 159.4598,107.5134 158.6278,98.1014 L158.6278,94.4324 Z" id="Stroke-25" stroke="#1DACFD" stroke-width="2" stroke-linecap="round" fill="#BFE7FD"></path>
                        </g>
                    </g>
                    <use id="Oval-7-Copy-3" stroke="#1DACFD" mask="url(#mask-4)" stroke-width="4" opacity="0.4" xlink:href="#path-3"></use>
                    <use id="Oval-7-Copy-4" stroke="#1DACFD" mask="url(#mask-6)" stroke-width="4" fill="#FFFFFF" xlink:href="#path-5"></use>
                    <use id="Oval-7-Copy-5" stroke="#1DACFD" mask="url(#mask-8)" stroke-width="4" opacity="0.4" xlink:href="#path-7"></use>
                    <g id="Group-7-Copy-2" opacity="0.6" transform="translate(161.000000, 0.000000)" stroke="#1DACFD" stroke-width="2" stroke-linecap="round">
                        <path d="M0,0 L5.61939164,5.58217712" id="Path-5"></path>
                        <path d="M0,5.22309963 L5.95897633,0" id="Path-5-Copy-2"></path>
                    </g>
                    <g id="Group-7-Copy-3" transform="translate(204.369365, 72.359163) rotate(12.000000) translate(-204.369365, -72.359163) translate(202.369365, 70.372408)" stroke="#1DACFD" stroke-width="2" stroke-linecap="round">
                        <path d="M-7.40148683e-17,8.02213336e-14 L3.74626109,3.72145142" id="Path-5"></path>
                        <path d="M-7.40148683e-17,3.48206642 L3.97265089,8.02213336e-14" id="Path-5-Copy-2"></path>
                    </g>
                </g>
            </g>
        </g>
    </g>
</svg>