<?xml version="1.0" standalone="no"?><!DOCTYPE svg PUBLIC "-//W3C//DTD SVG 1.1//EN" "http://www.w3.org/Graphics/SVG/1.1/DTD/svg11.dtd"><svg t="1500011180617" class="icon" style="" viewBox="0 0 1231 1024" version="1.1" xmlns="http://www.w3.org/2000/svg" p-id="4551" xmlns:xlink="http://www.w3.org/1999/xlink" width="240.4296875" height="200"><defs><style type="text/css"></style></defs><path d="M1108.329412 139.210458H267.712418c-38.818301 0-77.636601 31.456209-87.006536 70.94379l-129.840523 555.503268c-8.700654 38.818301 14.724183 70.27451 54.211765 70.27451h840.616994c38.818301 0 77.636601-31.456209 87.006536-70.27451l129.840522-556.172549c8.700654-38.818301-15.393464-70.27451-54.211764-70.274509z" fill="#FFFFFF" p-id="4552"></path><path d="M298.499346 170.666667h252.988236c35.471895 0 57.55817 28.779085 48.857516 64.25098l-117.793464 505.30719c-8.031373 35.471895-43.503268 64.25098-78.975163 64.25098H151.257516c-35.471895 0-57.55817-28.779085-48.857516-64.25098l117.793464-505.30719c8.031373-35.471895 42.833987-64.25098 78.305882-64.25098z" fill="#DE3131" p-id="4553"></path><path d="M530.739869 170.666667h290.467974c35.471895 0 19.40915 28.779085 11.377778 64.25098l-117.793464 505.30719c-8.031373 35.471895-5.354248 64.25098-40.826144 64.25098H382.828758c-35.471895 0-57.55817-28.779085-48.857516-64.25098l117.793464-505.30719c8.031373-35.471895 43.503268-64.25098 78.975163-64.25098z" fill="#004787" p-id="4554"></path><path d="M809.830065 170.666667h252.988236c35.471895 0 57.55817 28.779085 48.857516 64.25098l-117.793464 505.30719c-8.031373 35.471895-43.503268 64.25098-78.975163 64.25098H661.918954c-35.471895 0-57.55817-28.779085-48.857516-64.25098l117.793464-505.30719c8.031373-35.471895 43.503268-64.25098 78.975163-64.25098z" fill="#008088" p-id="4555"></path><path d="M767.665359 645.856209h24.094118l6.692811-22.755555h-24.094118l-6.692811 22.755555z m18.73987-62.912418l-8.031373 26.771242s8.700654-4.684967 14.054902-6.02353c4.684967-1.338562 12.047059-2.007843 12.047059-2.007843l6.023529-18.739869h-24.094117z m12.047059-38.818301l-8.031373 26.101961s8.700654-4.015686 13.385621-5.354248c4.684967-1.338562 12.047059-2.007843 12.047059-2.007844l5.354248-18.739869h-22.755555z m52.873202 0l-30.786928 101.730719h8.031373l-6.692811 20.747713h-8.031372l-2.007844 6.69281h-29.448366l2.007844-6.69281h-59.566013l6.023529-19.409151h6.023529l31.45621-103.738562 6.023529-20.747712h30.117647l-3.346405 10.708496s8.031373-6.023529 15.393464-8.031372c7.362092-2.007843 50.865359-2.677124 50.865359-2.677124l-6.69281 20.747712-9.369935 0.669281z" fill="#FFFFFF" p-id="4556"></path><path d="M864.04183 522.708497h32.12549l0.669281 12.047059c0 2.007843 1.338562 2.677124 5.354249 2.677124h6.69281l-6.023529 19.40915h-17.401307c-14.724183 1.338562-20.747712-5.354248-20.078432-12.71634l-1.338562-21.416993z m4.684967 93.699346h-30.117647l5.354249-17.401307h34.802614l5.354248-16.062745H849.986928l6.02353-19.40915H950.379085l-6.023529 19.40915h-32.125491l-5.354248 16.062745h32.12549l-5.354248 17.401307h-34.802615l-6.023529 7.362092h14.054902l3.346405 22.086274c0.669281 2.007843 0.669281 3.346405 1.338562 4.684967 0.669281 0.669281 4.684967 1.338562 7.362092 1.338563h4.015686l-6.69281 21.416993h-10.708497c-2.007843 0-4.015686 0-7.362092-0.669281-3.346405 0-5.354248-2.007843-8.031372-3.346405-2.007843-0.669281-4.684967-3.346405-5.354249-7.362092l-3.346405-22.086274-16.062745 21.416993c-5.354248 6.69281-12.047059 12.047059-23.424836 12.047059h-22.086275l6.023529-19.40915h8.700654c2.677124 0 4.684967-0.669281 6.023529-2.007843 2.007843-0.669281 3.346405-1.338562 4.684968-4.015687l23.424836-31.456209zM535.424837 568.219608h80.313725l-6.023529 19.40915h-32.125491l-5.354248 16.062745h32.794771l-6.023529 20.078432h-32.794771l-8.031373 26.771241c-0.669281 2.677124 8.031373 3.346405 10.708497 3.346406l16.732026-2.007843-6.69281 22.086274H542.117647c-2.677124 0-5.354248-0.669281-8.700654-1.338562s-4.684967-2.007843-6.023529-4.015686c-1.338562-2.007843-3.346405-4.015686-2.007843-8.700654l10.708497-35.471895h-18.070589l6.02353-20.078432H542.117647l4.684967-16.062745H528.732026l6.692811-20.078431z m54.211764-34.133333H622.431373l-6.02353 20.078431h-44.84183l-4.684967 4.015686c-2.007843 2.007843-2.677124 1.338562-5.354249 2.677124s-8.031373 4.015686-14.724183 4.015687h-14.724183l6.02353-19.409151h4.015686c4.015686 0 6.023529-0.669281 7.362092-1.338562 1.338562-0.669281 3.346405-2.677124 4.684967-6.023529l8.031372-14.724183h33.464053l-6.02353 10.708497zM652.54902 566.881046s8.700654-8.031373 24.094117-10.708497c4.015686-0.669281 26.101961-0.669281 26.101961-0.669281l3.346405-11.377778h-46.849673l-6.69281 22.755556z m44.172549 8.031372h-46.180393l-2.677124 9.369935h40.156863c4.684967-0.669281 6.023529 0 6.023529 0l2.677125-9.369935z m-60.235294-52.203921h28.109803l-4.015686 14.054902s8.700654-7.362092 14.724183-9.369935c6.023529-2.007843 20.078431-4.684967 20.078432-4.684967h45.511111l-15.393464 51.53464c-2.677124 8.700654-5.354248 14.724183-7.362092 17.401307-2.007843 2.677124-4.015686 4.684967-8.031372 7.362092-4.015686 2.007843-7.362092 3.346405-10.708497 3.346405-2.677124 0-7.362092 0.669281-14.054902 0.669281H642.509804l-12.71634 40.826144c-1.338562 4.015686-2.007843 6.023529-0.669281 7.362092 0.669281 0.669281 2.007843 2.007843 4.015686 2.007843l19.409151-2.007843-6.692811 22.755555h-21.416993c-6.69281 0-12.047059 0-15.393464-0.669281-3.346405 0-6.69281 0-9.369935-2.007843-2.007843-2.007843-5.354248-4.015686-5.354248-6.692811 0-2.007843 1.338562-6.023529 2.677124-10.708496l39.487582-131.179085z" fill="#FFFFFF" p-id="4557"></path><path d="M718.807843 606.368627l-2.677124 12.71634c-1.338562 4.015686-2.007843 6.69281-5.354248 9.369935-3.346405 2.677124-6.69281 5.354248-15.393464 5.354248l-15.393465 0.669281v14.054902c0 4.015686 0.669281 3.346405 1.338563 4.015687 0.669281 0.669281 1.338562 0.669281 2.007843 1.338562h4.684967l14.724183-0.669281-6.023529 20.747712h-17.401308c-12.047059 0-20.747712 0-24.094117-2.677124-2.677124-2.007843-3.346405-4.015686-3.346405-8.031373l1.338562-54.881045h27.440523l-0.669282 11.377777h6.692811c2.007843 0 4.015686 0 4.684967-0.669281 0.669281-0.669281 1.338562-1.338562 2.007843-2.677124l2.677125-8.700653 22.755555-1.338563z m-390.19085-274.405228c-0.669281 4.684967-18.739869 85.667974-18.739869 85.667974-4.015686 16.062745-6.69281 28.109804-16.062745 35.471895-5.354248 4.015686-11.377778 6.69281-18.739869 6.69281-11.377778 0-18.070588-6.023529-19.409151-16.732026v-4.015686l3.346406-22.086274s18.070588-73.620915 21.416993-83.660131v-1.338562c-36.141176 0.669281-42.164706 0-42.833987-0.669281 0 0.669281-1.338562 5.354248-1.338562 5.354248l-18.739869 82.99085-2.007843 7.362091-1.338562 23.424837c0 6.69281 1.338562 12.71634 4.015686 17.401307 8.700654 14.724183 32.794771 17.401307 46.849673 17.401307 18.070588 0 34.802614-4.015686 45.511111-10.708497 19.40915-11.377778 24.763399-29.448366 29.448366-45.511111l2.007843-8.031372s18.739869-76.298039 22.086275-86.337255v-1.338562c-25.43268-0.669281-32.794771-0.669281-35.471896-1.338562z m105.077125 151.926797c-12.71634 0-17.401307 0-32.125491 0.669281l-0.669281-1.338562c1.338562-5.354248 2.677124-11.377778 4.015687-16.732026l2.007843-8.031373c2.677124-12.047059 5.354248-26.101961 6.023529-30.117647 0-2.677124 1.338562-8.700654-6.023529-8.700653-3.346405 0-6.023529 1.338562-9.369935 2.677124-2.007843 6.69281-5.354248 24.094118-7.362091 32.794771-4.015686 17.401307-4.015686 19.40915-5.354249 28.109804l-1.338562 1.338562c-13.385621 0-17.401307 0-32.794771 0.669281l-0.669281-1.338562c2.677124-10.039216 5.354248-20.747712 7.362091-30.786928 6.69281-28.109804 8.031373-38.818301 9.369935-52.873203l1.338562-0.669281c14.724183-2.007843 18.070588-2.677124 34.133333-6.023529l1.338563 1.338562-2.677125 8.700654c2.677124-1.338562 5.354248-3.346405 8.031373-4.684968 7.362092-3.346405 16.062745-4.684967 20.747712-4.684967 6.69281 0 14.724183 2.007843 18.070589 10.039216 2.677124 7.362092 0.669281 16.062745-2.677125 33.464052l-2.007843 8.700654c-4.015686 19.40915-4.684967 22.755556-7.362091 36.141176l-2.007843 1.338562z m51.53464 0h-17.401307c-4.684967 0-9.369935 0-16.732026 0.669281l-0.669281-0.669281-0.669281-0.669281c2.007843-7.362092 2.677124-10.039216 4.015686-12.71634 0.669281-2.677124 2.007843-5.354248 3.346405-12.71634 2.007843-10.039216 3.346405-16.732026 4.684968-22.755555 0.669281-6.023529 1.338562-10.708497 2.007843-16.062745l0.669281-0.669281 0.669281-0.669281c7.362092-1.338562 12.71634-2.007843 17.401307-2.677125 5.354248-0.669281 10.039216-2.007843 18.070588-3.346405v1.338562l-4.015686 18.070588-4.015686 18.070589c-2.677124 12.71634-4.015686 17.401307-4.684968 20.747712-0.669281 3.346405-0.669281 5.354248-2.007843 11.377778l-0.669281 0.669281v2.007843z m80.983007-44.84183c-0.669281 3.346405-3.346405 15.393464-7.362092 20.747712-2.677124 4.015686-6.023529 6.023529-9.369934 6.02353-0.669281 0-7.362092 0-7.362092-9.369935 0-4.684967 0.669281-9.369935 2.007843-14.724183 3.346405-14.724183 7.362092-27.440523 17.401307-27.440523 7.362092 0.669281 8.031373 10.039216 4.684968 24.763399z m33.464052 1.338562c4.684967-19.40915 1.338562-28.779085-3.346405-34.133333-6.69281-8.700654-18.070588-11.377778-30.117647-11.377778-7.362092 0-24.763399 0.669281-38.14902 13.385621-10.039216 8.700654-14.054902 21.416993-16.732026 32.794771-2.677124 12.047059-6.023529 33.464052 14.054902 41.495425 6.023529 2.677124 14.724183 3.346405 20.747712 3.346405 14.724183 0 29.448366-4.015686 40.826144-16.062745 7.362092-9.369935 11.377778-23.424837 12.71634-29.448366z m310.546405 44.84183c-15.393464 0-19.40915 0-34.133333 0.669281l-0.669281-1.338562c4.015686-14.724183 8.031373-29.448366 11.377778-44.172549 4.684967-19.40915 5.354248-27.440523 6.69281-38.818301l1.338562-0.669281c15.393464-2.007843 19.40915-2.677124 35.471896-6.023529l0.669281 1.338562c-2.677124 12.047059-6.023529 24.094118-8.700654 36.141177-6.023529 25.43268-8.031373 38.14902-10.039216 51.53464l-2.007843 1.338562z" fill="#FFFFFF" p-id="4558"></path><path d="M887.466667 440.386928c-0.669281 3.346405-3.346405 15.393464-7.362092 20.747713-2.677124 4.015686-8.700654 6.023529-12.71634 6.023529-0.669281 0-7.362092 0-7.362091-9.369935 0-4.684967 0.669281-9.369935 2.007843-14.724183 3.346405-14.724183 7.362092-26.771242 17.401307-26.771242 8.031373 0.669281 11.377778 9.369935 8.031373 24.094118z m30.117647 2.007843c4.684967-19.40915-13.385621-2.007843-16.062745-8.031372-4.015686-10.039216-2.007843-30.117647-19.409151-37.479739-6.69281-2.677124-22.755556 0.669281-36.141176 13.385621-9.369935 8.700654-14.054902 20.747712-16.732026 32.794771-2.677124 12.047059-6.023529 33.464052 14.054902 40.826144 6.023529 2.677124 12.047059 3.346405 17.401307 3.346405 20.078431-1.338562 34.802614-30.786928 46.180392-42.833987 8.031373-9.369935 9.369935 3.346405 10.708497-2.007843z m-231.571242 41.495425c-12.71634 0-17.401307 0-32.12549 0.669281l-0.669281-1.338562c1.338562-5.354248 2.677124-11.377778 4.015686-16.732026l2.007843-8.031373c2.677124-12.047059 5.354248-26.101961 6.023529-30.117647 0-2.677124 1.338562-8.700654-6.023529-8.700653-3.346405 0-6.69281 1.338562-9.369935 2.677124-2.007843 6.69281-5.354248 24.094118-7.362091 32.794771-3.346405 17.401307-4.015686 19.40915-5.354248 28.109804l-1.338563 0.669281c-13.385621 0-17.401307 0-32.794771 0.669281l-0.669281-1.338562c2.677124-10.039216 4.684967-20.747712 7.362092-30.786928 6.023529-28.109804 8.031373-38.818301 9.369934-52.873203l1.338562-0.669281c14.724183-2.007843 18.070588-2.677124 34.133334-6.023529l1.338562 2.007843-2.007843 8.700654c2.677124-1.338562 5.354248-3.346405 8.031372-4.684968 7.362092-3.346405 16.062745-4.684967 20.747713-4.684967 6.69281 0 14.724183 2.007843 18.070588 10.039216 2.677124 7.362092 0.669281 16.062745-2.677124 33.464052l-2.007843 8.700654c-4.015686 19.40915-4.684967 22.755556-6.692811 36.141176l-3.346405 1.338562zM796.444444 331.963399h-10.708496c-27.440523 0.669281-38.818301 0-42.833987-0.669281-0.669281 2.007843-1.338562 5.354248-1.338562 5.354248l-10.039216 45.511111s-23.424837 97.045752-24.763399 101.730719h38.14902c0.669281-4.684967 6.69281-31.456209 6.69281-31.456209s4.684967-20.078431 5.354249-20.747712c0 0 1.338562-2.007843 2.677124-2.677125h2.007843c20.747712 0 44.172549 0 62.243137-13.385621 12.71634-9.369935 20.747712-22.755556 24.763399-39.487581 0.669281-4.015686 2.007843-8.700654 2.007843-14.054902 0-6.69281-1.338562-12.71634-4.684967-17.401307-9.369935-12.71634-28.109804-12.71634-49.526798-12.71634z m14.054902 47.518954c-2.007843 10.039216-8.700654 18.739869-17.401307 22.755555-7.362092 3.346405-15.393464 4.015686-24.094117 4.015687h-6.02353l0.669281-2.007843 10.708497-45.511111V354.718954l4.015686 0.669281s21.416993 2.007843 22.086275 2.007843c8.700654 2.677124 12.047059 10.708497 10.039215 22.086275z m225.547713 16.062745l-1.338562-1.338562c-16.062745 3.346405-18.739869 3.346405-32.794772 5.354248l-1.338562 1.338562v0.669281c-10.708497 24.763399-10.708497 19.40915-19.40915 38.818301v-2.677124l-2.007843-42.164706-1.338562-1.338562c-16.062745 3.346405-16.732026 3.346405-32.12549 5.354248l-1.338562 1.338562v2.007844c2.007843 10.039216 1.338562 7.362092 3.346405 22.755555 0.669281 7.362092 2.007843 14.724183 2.677124 22.755556 1.338562 12.71634 2.677124 18.739869 4.015686 37.479738-10.039216 16.732026-12.71634 23.424837-22.755555 38.14902l0.669281 1.338562c14.724183-0.669281 18.070588-0.669281 29.448366-0.669281l2.677124-2.677124c8.031373-18.070588 71.613072-126.494118 71.613072-126.494118z m-536.763399 10.708497c8.700654-6.023529 9.369935-14.054902 2.007843-18.070588-7.362092-4.015686-19.40915-2.677124-28.109804 2.677124s-9.369935 14.054902-2.677124 18.070588c7.362092 4.684967 20.078431 3.346405 28.779085-2.677124z" fill="#FFFFFF" p-id="4559"></path><path d="M963.095425 523.377778l-12.71634 21.416993c-4.015686 7.362092-11.377778 12.71634-22.755556 12.71634l-19.40915-0.669281 6.023529-18.739869h4.015687c2.007843 0 3.346405 0 4.684967-0.669281 0.669281-0.669281 2.007843-1.338562 2.677124-2.007843l7.362092-11.377778h30.117647v-0.669281z" fill="#FFFFFF" p-id="4560"></path></svg>