<?xml version="1.0" encoding="UTF-8"?>
<svg width="79px" height="53px" viewBox="0 0 79 53" version="1.1" xmlns="http://www.w3.org/2000/svg" xmlns:xlink="http://www.w3.org/1999/xlink">
    <!-- Generator: Sketch 41 (35326) - http://www.bohemiancoding.com/sketch -->
    <title>Group 3</title>
    <desc>Created with Sketch.</desc>
    <defs>
        <rect id="path-1" x="0" y="0" width="20" height="20" rx="3"></rect>
        <mask id="mask-2" maskContentUnits="userSpaceOnUse" maskUnits="objectBoundingBox" x="0" y="0" width="20" height="20" fill="white">
            <use xlink:href="#path-1"></use>
        </mask>
        <rect id="path-3" x="29" y="0" width="20" height="20" rx="3"></rect>
        <mask id="mask-4" maskContentUnits="userSpaceOnUse" maskUnits="objectBoundingBox" x="0" y="0" width="20" height="20" fill="white">
            <use xlink:href="#path-3"></use>
        </mask>
        <rect id="path-5" x="58" y="0" width="20" height="20" rx="3"></rect>
        <mask id="mask-6" maskContentUnits="userSpaceOnUse" maskUnits="objectBoundingBox" x="0" y="0" width="20" height="20" fill="white">
            <use xlink:href="#path-5"></use>
        </mask>
    </defs>
    <g id="Page-1" stroke="none" stroke-width="1" fill="none" fill-rule="evenodd">
        <g id="创建自定义事件" transform="translate(-713.000000, -545.000000)">
            <g id="Group-3" transform="translate(714.000000, 546.000000)">
                <g id="Group-14" transform="translate(0.000000, 32.000000)" stroke="#1DACFD" stroke-width="4">
                    <use id="Rectangle-3" mask="url(#mask-2)" xlink:href="#path-1"></use>
                    <use id="Rectangle-3-Copy" mask="url(#mask-4)" xlink:href="#path-3"></use>
                    <use id="Rectangle-3-Copy-2" mask="url(#mask-6)" xlink:href="#path-5"></use>
                </g>
                <path d="M11.5876999,11.3128928 C13.602952,10.3510679 14.9769876,8.33581572 14.9769876,5.9541541 C14.9769876,2.65646876 12.3205188,0 9.02283351,0 C5.72514817,0 3.06867941,2.65646876 3.06867943,5.9541541 C3.06867943,8.33581572 4.48851619,10.3510679 6.45796713,11.3128928 C2.74807112,12.4121212 0,15.8472101 0,19.9693168 L0.916023715,19.9693168 C0.916023715,15.6182042 4.30531141,12.1373141 8.56482165,11.862507 C8.70222522,11.862507 8.88542994,11.9083082 9.02283351,11.9083082 C9.16023707,11.9083082 9.3434418,11.9083082 9.48084536,11.862507 C13.7403556,12.0915129 17.1296433,15.6182042 17.1296433,19.9693168 L18.045667,19.9693168 C18.045667,15.8930113 15.2975959,12.4121212 11.5876999,11.3128928 L11.5876999,11.3128928 Z M4.03050431,5.9541541 C4.03050431,3.20608298 6.27476239,0.961824895 9.02283351,0.961824895 C11.7709046,0.961824895 14.0151627,3.20608298 14.0151627,5.9541541 C14.0151627,8.70222522 11.7709046,10.9464833 9.02283351,10.9464833 C6.27476239,10.9464833 4.03050431,8.70222522 4.03050431,5.9541541 L4.03050431,5.9541541 Z" id="Shape" stroke="#1DACFD" fill="#1DACFD"></path>
                <path d="M70.5876999,11.3128928 C72.602952,10.3510679 73.9769876,8.33581572 73.9769876,5.9541541 C73.9769876,2.65646876 71.3205188,0 68.0228335,0 C64.7251482,0 62.0686794,2.65646876 62.0686794,5.9541541 C62.0686794,8.33581572 63.4885162,10.3510679 65.4579671,11.3128928 C61.7480711,12.4121212 59,15.8472101 59,19.9693168 L59.9160237,19.9693168 C59.9160237,15.6182042 63.3053114,12.1373141 67.5648216,11.862507 C67.7022252,11.862507 67.8854299,11.9083082 68.0228335,11.9083082 C68.1602371,11.9083082 68.3434418,11.9083082 68.4808454,11.862507 C72.7403556,12.0915129 76.1296433,15.6182042 76.1296433,19.9693168 L77.045667,19.9693168 C77.045667,15.8930113 74.2975959,12.4121212 70.5876999,11.3128928 L70.5876999,11.3128928 Z M63.0305043,5.9541541 C63.0305043,3.20608298 65.2747624,0.961824895 68.0228335,0.961824895 C70.7709046,0.961824895 73.0151627,3.20608298 73.0151627,5.9541541 C73.0151627,8.70222522 70.7709046,10.9464833 68.0228335,10.9464833 C65.2747624,10.9464833 63.0305043,8.70222522 63.0305043,5.9541541 L63.0305043,5.9541541 Z" id="Shape-Copy" stroke="#1DACFD" fill="#1DACFD"></path>
                <path d="M41.5876999,11.3128928 C43.602952,10.3510679 44.9769876,8.33581572 44.9769876,5.9541541 C44.9769876,2.65646876 42.3205188,0 39.0228335,0 C35.7251482,0 33.0686794,2.65646876 33.0686794,5.9541541 C33.0686794,8.33581572 34.4885162,10.3510679 36.4579671,11.3128928 C32.7480711,12.4121212 30,15.8472101 30,19.9693168 L30.9160237,19.9693168 C30.9160237,15.6182042 34.3053114,12.1373141 38.5648216,11.862507 C38.7022252,11.862507 38.8854299,11.9083082 39.0228335,11.9083082 C39.1602371,11.9083082 39.3434418,11.9083082 39.4808454,11.862507 C43.7403556,12.0915129 47.1296433,15.6182042 47.1296433,19.9693168 L48.045667,19.9693168 C48.045667,15.8930113 45.2975959,12.4121212 41.5876999,11.3128928 L41.5876999,11.3128928 Z M34.0305043,5.9541541 C34.0305043,3.20608298 36.2747624,0.961824895 39.0228335,0.961824895 C41.7709046,0.961824895 44.0151627,3.20608298 44.0151627,5.9541541 C44.0151627,8.70222522 41.7709046,10.9464833 39.0228335,10.9464833 C36.2747624,10.9464833 34.0305043,8.70222522 34.0305043,5.9541541 L34.0305043,5.9541541 Z" id="Shape-Copy-2" stroke="#1DACFD" fill="#1DACFD"></path>
                <path d="M37.8025544,44.051737 L35.5036967,41.7620786 C35.1596957,41.4194691 34.6019753,41.4194691 34.2579743,41.7620786 C33.9140086,42.1046705 33.9140086,42.6601809 34.2579743,43.0027904 L37.0119545,45.7457886 C37.1954369,45.9284856 37.5295409,46.0116955 37.8057243,45.9986808 C38.0800939,46.0116429 38.4097248,45.928433 38.5931192,45.7457535 L44.8662325,39.4976953 C45.2102334,39.1550682 45.2102334,38.5995754 44.8662325,38.2569834 C44.5222491,37.9143389 43.9645463,37.9143389 43.6205453,38.2569834 L37.8025544,44.051737 Z" id="勾-copy-11" fill="#1DACFD"></path>
            </g>
        </g>
    </g>
</svg>