<?xml version="1.0" encoding="UTF-8"?>
<svg width="94px" height="76px" viewBox="0 0 94 76" version="1.1" xmlns="http://www.w3.org/2000/svg" xmlns:xlink="http://www.w3.org/1999/xlink">
    <!-- Generator: Sketch 41 (35326) - http://www.bohemiancoding.com/sketch -->
    <title>Group 15</title>
    <desc>Created with Sketch.</desc>
    <defs></defs>
    <g id="Page-1" stroke="none" stroke-width="1" fill="none" fill-rule="evenodd">
        <g id="创建自定义事件" transform="translate(-894.000000, -536.000000)">
            <g id="Group-15" transform="translate(892.000000, 531.000000)">
                <ellipse id="Oval-16" stroke="#1DACFD" stroke-width="2.3" cx="50.7692308" cy="45.2747253" rx="10.989011" ry="10.989011"></ellipse>
                <ellipse id="Oval-16-Copy" stroke="#1DACFD" stroke-width="2.3" cx="50.7692308" cy="45.2747253" rx="23.0769231" ry="23.0769231"></ellipse>
                <ellipse id="Oval-16-Copy-2" stroke="#1DACFD" stroke-width="2.3" cx="50.7692308" cy="45.2747253" rx="32.967033" ry="32.967033"></ellipse>
                <rect id="Rectangle-99" fill="#1DACFD" transform="translate(79.285365, 74.150000) rotate(42.000000) translate(-79.285365, -74.150000) " x="71" y="73" width="16.5707309" height="2.29999995" rx="1.14999998"></rect>
                <rect id="Rectangle-99-Copy" fill="#1DACFD" transform="translate(22.285365, 74.150000) scale(-1, 1) rotate(42.000000) translate(-22.285365, -74.150000) " x="14" y="73" width="16.5707309" height="2.29999995" rx="1.14999998"></rect>
                <path d="M73.2539844,13.491655 L73.2539844,8.21970099 L71.0112326,8.21970099 L71.0112326,13.491655 L66.5196342,9.617909 L65.0586628,11.3271834 L71.0112326,16.4609334 L71.0112326,57.8693754 C71.0112326,58.4864508 71.5132897,58.9889318 72.1326085,58.9889318 C72.7562451,58.9889318 73.2539844,58.4876893 73.2539844,57.8693754 L73.2539844,16.4609334 L79.2065543,11.3271834 L77.7455828,9.617909 L73.2539844,13.491655 Z" id="Combined-Shape-Copy-4" fill="#1DACFD" transform="translate(72.132609, 33.604316) rotate(57.000000) translate(-72.132609, -33.604316) "></path>
                <g id="Group-48" transform="translate(31.264088, 27.868250) rotate(8.000000) translate(-31.264088, -27.868250) translate(3.187165, 4.022096)" fill="#1DACFD">
                    <path d="M33.6618134,2.65459352 L33.6618134,-2.61736046 L31.4190616,-2.61736046 L31.4190616,2.65459352 L26.9274632,-1.21915245 L25.4664918,0.490121915 L31.4190616,5.62387193 L31.4190616,47.0323139 C31.4190616,47.6493894 31.9211187,48.1518703 32.5404375,48.1518703 C33.1640741,48.1518703 33.6618134,47.6506279 33.6618134,47.0323139 L33.6618134,5.62387193 L39.6143833,0.490121915 L38.1534118,-1.21915245 L33.6618134,2.65459352 Z" id="Combined-Shape-Copy-5" transform="translate(32.540438, 22.767255) rotate(-46.000000) translate(-32.540438, -22.767255) "></path>
                    <path d="M27.0778307,18.4612702 L27.0778307,13.1893162 L24.8350789,13.1893162 L24.8350789,18.4612701 L20.3434805,14.5875242 L18.8825091,16.2967985 L24.8350789,21.4305486 L24.8350789,62.8389906 C24.8350789,63.456066 25.337136,63.9585469 25.9564548,63.9585469 C26.5800914,63.9585469 27.0778307,63.4573045 27.0778307,62.8389906 L27.0778307,21.4305486 L33.0304006,16.2967985 L31.5694291,14.5875242 L27.0778307,18.4612702 Z" id="Combined-Shape-Copy-6" transform="translate(25.956455, 38.573932) rotate(-86.000000) translate(-25.956455, -38.573932) "></path>
                </g>
            </g>
        </g>
    </g>
</svg>