<?xml version="1.0" encoding="UTF-8"?>
<svg width="102px" height="50px" viewBox="0 0 102 50" version="1.1" xmlns="http://www.w3.org/2000/svg" xmlns:xlink="http://www.w3.org/1999/xlink">
    <!-- Generator: Sketch 41 (35326) - http://www.bohemiancoding.com/sketch -->
    <title>网易网</title>
    <desc>Created with Sketch.</desc>
    <defs></defs>
    <g id="Page-1" stroke="none" stroke-width="1" fill="none" fill-rule="evenodd">
        <g id="邮箱账户--选择邮件服务商" transform="translate(-348.000000, -457.000000)" fill="#FB2505">
            <g id="网易网" transform="translate(348.000000, 457.000000)">
                <path d="M18.7774236,38.9324173 C19.532453,37.9183047 18.2740707,34.3689105 18.2740707,34.3689105 C13.7438944,30.3124601 14.7506002,37.4112484 14.7506002,37.4112484 C18.0223942,42.7353397 18.7774236,38.9324173 18.7774236,38.9324173 Z M37.4014819,35.8900795 C37.4014819,35.8900795 32.1162762,36.1436076 33.3746585,39.4394736 C33.3746585,39.4394736 41.1766289,41.2141707 41.9316582,37.9183047 C41.9316582,37.9183047 42.6866876,34.8759668 37.4014819,35.8900795 L37.4014819,35.8900795 Z M16.7640119,20.1713338 C12.485512,15.6078271 18.2740707,14.0866581 18.2740707,14.0866581 C20.5391589,7.74845424 15.2539531,8.50903871 15.2539531,8.50903871 C10.2204239,7.49492609 13.2405414,11.0443203 13.2405414,11.0443203 C12.2338356,14.5937144 9.71707095,15.6078271 9.71707095,15.6078271 C2.67012998,14.0866581 8.20701217,9.01609502 8.20701217,9.01609502 C7.95533571,5.46670085 13.2405414,5.46670085 13.2405414,5.46670085 C15.0022767,5.46670085 14.7506002,3.4384756 14.7506002,3.4384756 C13.9955708,-0.617974878 8.20701217,1.41025036 8.20701217,1.41025036 C5.18689461,3.4384756 2.16677705,11.0443203 2.16677705,11.0443203 C0.153365345,14.8472426 5.18689461,17.128996 5.18689461,17.128996 C6.94862985,20.1713338 2.16677705,25.2418969 2.16677705,25.2418969 C2.41845351,33.6083261 7.20030632,31.833629 7.20030632,31.833629 C7.70365924,33.3547979 13.7438944,32.3406853 13.7438944,32.3406853 C13.4922179,31.3265727 18.2740707,28.2842348 18.2740707,28.2842348 C19.0291001,22.7066154 16.7640119,20.1713338 16.7640119,20.1713338 L16.7640119,20.1713338 Z M12.2338356,28.7912911 C12.2338356,28.7912911 4.68354168,29.0448193 6.19360046,25.7489533 C6.19360046,25.7489533 7.95533571,21.4389746 8.7103651,21.6925028 C8.7103651,21.6925028 12.2338356,17.6360523 14.7506002,22.7066154 C14.7506002,22.7066154 15.7573061,27.2701222 12.2338356,28.7912911 Z M0.153365345,41.4676989 C-0.853340508,48.0594309 3.67683583,45.5241494 3.67683583,45.5241494 C3.42515937,42.4818115 5.69024754,40.9606426 5.69024754,40.9606426 L5.69024754,34.3689105 C1.41174766,33.1012698 0.153365345,41.4676989 0.153365345,41.4676989 L0.153365345,41.4676989 Z M8.7103651,36.3971358 C7.20030632,51.6088251 12.2338356,43.4959241 12.2338356,43.4959241 C12.988865,30.8195164 8.7103651,36.3971358 8.7103651,36.3971358 L8.7103651,36.3971358 Z M48.2235698,12.5654892 C50.2369815,8.76256686 45.7068052,5.46670085 45.7068052,5.46670085 L42.6866876,4.95964454 C39.1632172,3.18494745 33.122982,4.45258823 33.122982,4.45258823 C29.5995115,5.720229 23.0559235,4.95964454 23.0559235,4.95964454 C18.5257472,10.5372639 22.5525706,16.1148834 22.5525706,16.1148834 L22.5525706,26.7630659 C21.7975412,36.3971358 18.0223942,41.4676989 18.0223942,41.4676989 C18.5257472,47.5523746 22.0492177,44.0029804 22.0492177,44.0029804 C24.5659823,42.4818115 25.5726881,30.8195164 25.5726881,30.8195164 L28.0894528,31.833629 L28.0894528,37.9183047 C29.3478351,40.4535863 31.8645997,39.4394736 32.1162762,38.9324173 C32.3679526,38.425361 32.1162762,37.4112484 32.1162762,37.4112484 C30.6062174,36.6506639 31.6129233,31.833629 31.6129233,31.833629 C31.6129233,29.2983474 42.1833347,30.3124601 42.1833347,30.3124601 C44.4484229,24.7348406 36.6464525,26.2560096 36.6464525,26.2560096 C34.8847173,26.0024814 35.6397467,22.7066154 35.6397467,22.7066154 C39.1632172,20.9319183 43.6933935,22.4530872 43.6933935,23.720728 C43.94507,24.9883688 43.6933935,40.4535863 43.6933935,40.4535863 C45.2034523,50.0876562 48.7269228,44.0029804 48.7269228,44.0029804 C49.4819521,41.4676989 47.216864,33.8618542 47.216864,33.8618542 C45.7068052,28.2842348 48.2235698,12.5654892 48.2235698,12.5654892 L48.2235698,12.5654892 Z M32.3679526,27.2701222 C27.3344234,26.2560096 25.8243646,27.7771785 25.8243646,27.7771785 C25.3210117,20.1713338 32.3679526,23.2136717 32.3679526,23.2136717 L32.3679526,27.2701222 Z M43.6933935,18.6501649 L38.9115407,18.1431086 L39.4148936,15.6078271 C41.1766289,14.5937144 40.9249524,10.5372639 40.9249524,10.5372639 C35.8914231,7.49492609 36.3947761,14.5937144 36.3947761,14.5937144 C36.1430996,20.1713338 32.3679526,19.1572212 32.3679526,19.1572212 L26.8310705,19.1572212 C21.7975412,15.6078271 25.8243646,9.52315133 25.8243646,9.52315133 L30.8578939,8.50903871 C31.1095703,6.48081347 38.4081878,7.49492609 38.4081878,7.49492609 C42.9383641,7.74845424 43.441717,11.0443203 43.441717,11.0443203 L43.6933935,18.6501649 L43.6933935,18.6501649 Z M83.9616276,33.3547979 C83.9616276,33.3547979 74.1462456,39.4394736 71.8811574,41.9747552 C71.8811574,41.9747552 64.5825399,44.0029804 62.3174518,44.5100367 C62.3174518,44.5100367 56.0255402,51.1017688 68.3576869,48.0594309 C68.3576869,48.0594309 75.1529514,45.2706212 77.9213925,41.9747552 C77.9213925,41.9747552 86.4783923,35.6365513 89.4985098,32.8477416 C89.4985098,32.8477416 90.2535392,27.2701222 83.9616276,33.3547979 L83.9616276,33.3547979 Z M100.823951,33.3547979 C101.075627,26.0024814 91.763598,22.1995591 91.763598,22.1995591 C91.0085686,22.1995591 84.716657,21.6925028 84.716657,21.6925028 C79.9348042,21.1854465 81.6965394,25.2418969 81.6965394,25.2418969 C68.3576869,36.3971358 61.0590695,36.3971358 61.0590695,36.3971358 C54.7671579,40.4535863 62.0657753,40.9606426 62.0657753,40.9606426 C68.3576869,41.4676989 85.7233629,26.2560096 85.7233629,26.2560096 C87.4850981,25.2418969 89.7501863,26.2560096 89.7501863,26.2560096 C89.7501863,28.537763 90.7568921,29.2983474 90.7568921,29.2983474 C100.823951,27.5236503 95.2870685,38.425361 95.2870685,38.425361 C92.2669509,44.0029804 84.716657,43.4959241 84.716657,43.4959241 C80.1864807,40.7071144 80.6898336,43.4959241 80.6898336,43.4959241 C82.4515688,55.1582193 94.7837155,45.5241494 94.7837155,45.5241494 C102.837362,39.4394736 100.823951,33.3547979 100.823951,33.3547979 L100.823951,33.3547979 Z M84.4649805,12.5654892 C90.2535392,11.2978484 85.9750393,9.01609502 85.9750393,9.01609502 C84.2133041,7.74845424 72.8878632,9.01609502 72.8878632,9.01609502 C70.1194221,11.2978484 72.8878632,12.5654892 72.8878632,12.5654892 L84.4649805,12.5654892 Z M29.3478351,11.0443203 C27.3344234,13.0725455 29.851188,16.6219397 29.851188,16.6219397 C31.6129233,18.6501649 32.8713056,17.128996 32.8713056,17.128996 L32.8713056,13.5796018 C31.8645997,9.77667948 29.3478351,11.0443203 29.3478351,11.0443203 Z M60.3040401,31.3265727 C73.6428926,30.5659882 78.9280984,21.1854465 78.9280984,21.1854465 L91.5119215,20.6783902 C95.7904214,19.1572212 95.5387449,16.6219397 95.5387449,16.6219397 C96.5454508,15.1007707 95.5387449,10.0302076 95.5387449,10.0302076 C95.035392,3.18494745 92.0152744,1.91730667 92.0152744,1.91730667 C89.4985098,1.41025036 88.491804,0.903194053 88.491804,0.903194053 C86.4783923,0.142609587 80.9415101,0.903194053 80.9415101,0.903194053 C77.9213925,-1.12503119 71.3778045,0.903194053 71.3778045,0.903194053 C65.8409223,2.93141929 70.3710986,5.46670085 70.3710986,5.46670085 C91.0085686,0.903194053 91.0085686,8.0019824 91.0085686,8.0019824 C93.0219803,16.1148834 88.9951569,16.1148834 88.9951569,16.1148834 C83.4582747,15.8613552 84.4649805,17.128996 84.4649805,17.128996 C82.7032453,17.3825241 81.9482159,16.6219397 81.9482159,16.6219397 C78.4247454,15.3542989 74.9012749,17.6360523 74.9012749,17.6360523 L71.3778045,17.6360523 C69.3643927,17.3825241 68.8610398,14.5937144 68.8610398,14.5937144 L68.8610398,6.48081347 C66.0925987,2.17083483 64.3308635,6.98786978 64.3308635,6.98786978 L64.3308635,17.6360523 C66.8476281,23.4671999 73.3912162,21.1854465 73.3912162,21.1854465 C72.1328338,24.2277843 64.8342164,26.7630659 64.8342164,26.7630659 C62.8208047,27.016594 59.8006871,26.7630659 59.8006871,26.7630659 C56.0255402,29.5518756 60.3040401,31.3265727 60.3040401,31.3265727 L60.3040401,31.3265727 Z" id="Shape"></path>
            </g>
        </g>
    </g>
</svg>