<?xml version="1.0" encoding="UTF-8"?>
<svg width="54px" height="50px" viewBox="0 0 54 50" version="1.1" xmlns="http://www.w3.org/2000/svg" xmlns:xlink="http://www.w3.org/1999/xlink">
    <!-- Generator: Sketch 41 (35326) - http://www.bohemiancoding.com/sketch -->
    <title>Group 7</title>
    <desc>Created with Sketch.</desc>
    <defs></defs>
    <g id="Page-1" stroke="none" stroke-width="1" fill="none" fill-rule="evenodd">
        <g id="邮箱账户--选择邮件服务商" transform="translate(-829.000000, -456.000000)" fill="#C9CACD">
            <g id="Group-7" transform="translate(829.000000, 456.000000)">
                <path d="M53.584505,1.01775203 C53.4939929,0.863499421 53.1393639,0.34438007 52.3158529,0.133765933 C51.2668038,-0.130243337 49.9106074,0.23165701 48.3451946,1.18535342 L1.70628135,25.8524218 C1.30565439,26.0363384 0.00287486938,26.7275087 0.0310671369,27.95708 C0.0518403866,28.7787717 0.630523772,29.4224797 1.81905042,29.8971031 L16.5636063,34.769409 L18.7655708,35.6726767 L42.8120912,11.9919351 L24.1310044,37.8722596 L27.1668665,39.1166628 L41.9811612,44.0304983 C42.1977965,44.1313557 42.6651946,44.3137891 43.2320076,44.3137891 C43.5866366,44.3137891 43.9798446,44.2425956 44.3760201,44.0379143 C45.3672009,43.5247277 45.9636899,42.3841483 46.1358111,40.7407648 L53.7121121,1.78604867 C53.7640452,1.5235226 53.7195311,1.25061414 53.584505,1.01775203 Z" id="Shape"></path>
                <path d="M25.2364381,49.9840556 C25.0761873,50.0048204 24.9085175,49.9840556 24.7527181,49.9202781 C24.3891863,49.7719583 24.1517777,49.4189571 24.1532615,49.0273928 L24.1488101,41.6351333 C24.1488101,41.3384936 24.2838362,41.0596524 24.5182772,40.8757358 C24.7527181,40.6933024 25.0568979,40.6280417 25.3447557,40.6992352 L31.1835227,42.142387 C31.5203461,42.2254461 31.785947,42.4820394 31.8794266,42.8142758 C31.97439,43.1479954 31.883878,43.5054461 31.6405342,43.7531402 L25.8062187,49.702248 C25.6504193,49.8624334 25.4471382,49.9588413 25.2364381,49.9840556 Z" id="Shape"></path>
            </g>
        </g>
    </g>
</svg>