<?xml version="1.0" encoding="UTF-8"?>
<svg width="68px" height="50px" viewBox="0 0 68 50" version="1.1" xmlns="http://www.w3.org/2000/svg" xmlns:xlink="http://www.w3.org/1999/xlink">
    <!-- Generator: Sketch 41 (35326) - http://www.bohemiancoding.com/sketch -->
    <title>Layer_x0020_1</title>
    <desc>Created with Sketch.</desc>
    <defs></defs>
    <g id="Page-1" stroke="none" stroke-width="1" fill="none" fill-rule="evenodd">
        <g id="邮箱账户--选择邮件服务商" transform="translate(-520.000000, -457.000000)">
            <g id="Layer_x0020_1" transform="translate(520.000000, 457.000000)">
                <g id="_316006816">
                    <polygon id="_316007416" fill="#F7F5ED" points="33.8950404 29.1023726 61.1169714 49.4420035 6.40871395 49.4420035 33.6307328 29.1023726 33.7628866 29.2003515"></polygon>
                    <path d="M6.40928472,49.8176626 L33.7921273,29.9231107 L33.6432997,29.8167803 L33.6272242,29.8280932 L33.5747974,29.7911967 C31.0428663,28.0067239 28.5219553,26.1941756 26.0070373,24.3619788 C26.0067781,24.3618231 26.0065706,24.3616674 26.0063632,24.3615117 C19.4631246,19.5945961 12.9603663,14.6949915 6.40869787,9.81239047 L6.40869787,49.8180583 L6.40926829,49.8176432 L6.40928472,49.8176626 Z" id="_316007536" fill="#F7F5ED"></path>
                    <g id="Group">
                        <path d="M61.1169714,49.4420035 L63.0385582,49.4420035 C65.4823897,49.4420035 67.4818244,47.4411336 67.4818244,44.9955185 L67.4818244,4.48642355 C67.4818244,2.04082162 65.4823502,0.0399384886 63.0385582,0.0399384886 L61.1169714,0.0399384886 L61.1169714,49.4419596 L61.1169714,49.4420035 Z" id="_316007272" fill="#E75A4D"></path>
                        <path d="M6.40871395,49.8181019 L4.48712714,49.8181019 C2.04334834,49.8181019 0.0438610191,47.817232 0.0438610191,45.3716169 L0.0438610191,4.48655536 C0.0438610191,2.04095343 2.04328248,0.0400702988 4.48712714,0.0400702988 L6.40871395,0.0400702988 L6.40871395,49.8181898 L6.40871395,49.8181019 Z" id="_316007032" fill="#E75A4D"></path>
                        <polygon id="_316007080" fill="#F7F5ED" points="33.8950404 20.3797452 61.1169714 0.0399384886 6.40871395 0.0399384886 33.6307328 20.3797452 33.7628866 20.2817223"></polygon>
                        <path d="M33.7923029,29.9231107 L61.1172349,49.4420914 L61.1172349,9.81239016 C56.59674,13.181283 52.0994269,16.5582601 47.5960988,19.8942004 C43.333361,23.0518893 39.0652404,26.1728032 34.7667727,29.2151582 L34.7655281,29.2160404 L33.7923404,29.9230922 L33.7923029,29.9231107 Z" id="_316006984" fill="#B7B6AD"></path>
                        <polygon id="_316006120" fill="#B7B6AD" points="34.0320238 29.948594 6.51158319 49.9600176 6.30584472 49.6757469 33.8265487 29.6643234"></polygon>
                        <path d="M33.7923029,29.9231107 C23.4178767,23.738884 10.1829129,12.561116 0.0440366388,5.093058 L3.04381862,0.387390158 L6.3211851,0.119202988 L6.40887421,0.040013181 L33.6308491,20.3797759 L33.7630306,20.2817487 L33.8952121,20.3797759 L61.117187,0.040013181 L61.2048761,0.119202988 L64.4822426,0.387390158 L67.4820246,5.093058 C56.516199,13.1702109 45.0700975,22.5170914 33.7922836,29.9231107 L33.7923029,29.9231107 Z" id="_316006720" fill="#E75A4D"></path>
                    </g>
                </g>
            </g>
        </g>
    </g>
</svg>