<?xml version="1.0" encoding="UTF-8"?>
<svg width="63px" height="50px" viewBox="0 0 63 50" version="1.1" xmlns="http://www.w3.org/2000/svg" xmlns:xlink="http://www.w3.org/1999/xlink">
    <!-- Generator: Sketch 41 (35326) - http://www.bohemiancoding.com/sketch -->
    <title>Group 8</title>
    <desc>Created with Sketch.</desc>
    <defs></defs>
    <g id="Page-1" stroke="none" stroke-width="1" fill="none" fill-rule="evenodd">
        <g id="邮箱账户--选择邮件服务商" transform="translate(-672.000000, -457.000000)" fill="#1DACFD">
            <g id="Group-8" transform="translate(672.000000, 457.000000)">
                <path d="M3.00470201,0.0625 C1.34525091,0.0625 0,1.40816359 0,3.06459495 L0,7.68540505 C0,9.34341631 1.34006202,10.6875 3.00470201,10.6875 L48.0772652,10.6875 C49.7367163,10.6875 51.0819672,9.34183641 51.0819672,7.68540505 L51.0819672,3.06459495 C51.0819672,1.40658369 49.7419052,0.0625 48.0772652,0.0625 L3.00470201,0.0625 Z M9.90491803,8.3125 C8.2852459,8.3125 6.94590164,7 6.94590164,5.34375 C6.94590164,3.71875 8.2852459,2.375 9.90491803,2.375 C11.5245902,2.375 12.8639344,3.6875 12.8639344,5.34375 C12.8639344,7 11.5557377,8.3125 9.90491803,8.3125 Z M21.5540984,29.21875 L2.99700502,29.21875 C1.34180485,29.21875 0,30.5588396 0,32.2254347 L0,45.0558153 C0,46.7163614 1.35220222,48.0625 3.00566689,48.0625 L21.6163934,48.0625 C21.5852459,47.875 21.5540984,47.65625 21.5540984,47.4375 L21.5540984,29.21875 Z M3.00224387,14.75 C1.34415037,14.75 0,16.0851101 0,17.7508799 L0,22.1241201 C0,23.7814603 1.34830539,25.125 2.99700502,25.125 L21.5540984,25.125 L21.5540984,22.71875 C21.5540984,21.125 22.8622951,19.8125 24.4508197,19.8125 L51.0819672,19.8125 L51.0819672,17.7533875 C51.0819672,16.0946624 49.7352181,14.75 48.0904056,14.75 L3.00224387,14.75 Z M9.90491803,22.78125 C8.2852459,22.78125 6.94590164,21.46875 6.94590164,19.8125 C6.94590164,18.1875 8.2852459,16.84375 9.90491803,16.84375 C11.5245902,16.84375 12.8639344,18.15625 12.8639344,19.8125 C12.8639344,21.4375 11.5557377,22.78125 9.90491803,22.78125 Z" id="Shape"></path>
                <path d="M59.8032787,23.6875 L27.3786885,23.6875 C26.0081967,23.6875 24.8868852,24.8125 24.8868852,26.1875 L24.8868852,47.4375 C24.8868852,48.8125 26.0081967,49.9375 27.3786885,49.9375 L59.8032787,49.9375 C61.1737705,49.9375 62.295082,48.8125 62.295082,47.4375 L62.295082,26.1875 C62.295082,24.78125 61.1737705,23.6875 59.8032787,23.6875 L59.8032787,23.6875 Z M56.2836066,32.1875 C56.1901639,32.53125 55.9721311,32.84375 55.6606557,33 L44.5098361,39.46875 C44.2606557,39.65625 43.9803279,39.78125 43.6688525,39.78125 L43.6377049,39.78125 C43.3262295,39.78125 43.0147541,39.6875 42.7967213,39.46875 L31.6459016,33 C31.3344262,32.8125 31.1163934,32.53125 31.0229508,32.1875 C30.9295082,31.84375 30.9918033,31.46875 31.147541,31.15625 C31.3967213,30.71875 31.8327869,30.46875 32.3311475,30.46875 C32.5803279,30.46875 32.7983607,30.53125 33.0163934,30.65625 L43.6688525,36.8125 L54.3213115,30.65625 C54.5393443,30.53125 54.757377,30.46875 55.0065574,30.46875 C55.504918,30.46875 55.9409836,30.71875 56.1901639,31.15625 C56.3147541,31.46875 56.3770492,31.84375 56.2836066,32.1875 L56.2836066,32.1875 Z" id="Shape"></path>
            </g>
        </g>
    </g>
</svg>